<svg width="452" height="96" viewBox="0 0 452 96" fill="none" xmlns="http://www.w3.org/2000/svg" role="img" aria-label="Alert Eye Electronics — Always Alert, Always Watching">
  <title>Alert Eye Electronics</title>
  <g transform="translate(6 14) scale(1.16)">
    <path d="M8 9H22" stroke="#0b2a5b" stroke-width="3" stroke-linecap="round"/>
    <path d="M15.5 9V16" stroke="#0b2a5b" stroke-width="3.2" stroke-linecap="round"/>
    <rect x="9" y="24" width="38" height="17" rx="8.5" stroke="#0b2a5b" stroke-width="3.4"/>
    <path d="M11 25.5C10 17 16 14.5 24 14.5H41C47 14.5 50.5 17 51 21.5" stroke="#0b2a5b" stroke-width="3.2" stroke-linecap="round"/>
    <circle cx="16.5" cy="31" r="3" fill="#f5a623" opacity="0.22"/>
    <circle cx="16.5" cy="31" r="1.5" fill="#f5a623"/>
    <circle cx="40" cy="32.5" r="8" fill="#f5a623" opacity="0.15"/>
    <circle cx="40" cy="32.5" r="7.4" stroke="#f5a623" stroke-width="2.8"/>
    <circle cx="40" cy="27.6" r="0.95" fill="#f5a623"/>
    <circle cx="44.9" cy="32.5" r="0.95" fill="#f5a623"/>
    <circle cx="40" cy="37.4" r="0.95" fill="#f5a623"/>
    <circle cx="35.1" cy="32.5" r="0.95" fill="#f5a623"/>
    <circle cx="40" cy="32.5" r="3.3" fill="#0b2a5b"/>
    <circle cx="40" cy="32.5" r="1.5" fill="#f5a623"/>
    <path d="M52 25a9 9 0 0 1 0 15" stroke="#f5a623" stroke-width="2.6" stroke-linecap="round"/>
    <path d="M56.5 20.5a15 15 0 0 1 0 24" stroke="#f5a623" stroke-width="2.6" stroke-linecap="round" opacity="0.4"/>
  </g>
  <text x="96" y="46" font-family="Inter, 'Segoe UI', Roboto, sans-serif" font-size="30" font-weight="800" letter-spacing="-0.3" fill="#0b2a5b">Alert Eye <tspan font-weight="600">Electronics</tspan></text>
  <text x="97" y="70" font-family="Inter, 'Segoe UI', Roboto, sans-serif" font-size="13.5" font-weight="600" letter-spacing="2.4" fill="#f5a623">ALWAYS ALERT, ALWAYS WATCHING</text>
</svg>
